
        <svg xmlns="http://www.w3.org/2000/svg" xmlns:xlink="http://www.w3.org/1999/xlink" version="1.1" width="3162.0648259303725" 
        height="798.6274044381493" viewBox="0 0 3162.0648259303725 798.6274044381493">
			
			<g transform="scale(8.10324129651861) translate(10, 10)">
				<defs id="SvgjsDefs30903"><linearGradient id="SvgjsLinearGradient30910"><stop id="SvgjsStop30911" stop-color="#ef4136" offset="0"></stop><stop id="SvgjsStop30912" stop-color="#fbb040" offset="1"></stop></linearGradient></defs><g id="SvgjsG30904" featureKey="monogramFeature-0" transform="matrix(1.7238939176111379,0,0,1.7238939176111379,3.06176577881444,-25.080507261136347)" fill="url(#SvgjsLinearGradient30910)"><path d="M44.707 41.016 l-4.4531 19.102 l-14.678 0 l4.1602 -17.93 l-8.4961 0 l-4.1895 17.93 l-14.766 0 l4.4238 -19.102 l-2.959 0 l5.6543 -24.727 l14.766 0 l-3.3691 14.854 l8.4668 0 l3.4277 -14.854 l14.707 0 l-5.7129 24.727 l3.0176 0 z"></path></g><g id="SvgjsG30905" featureKey="nameFeature-0" transform="matrix(1.7640112059500923,0,0,1.7640112059500923,94.47197842924591,-18.168127742232382)" fill="#ff9300"><path d="M2 40 l0 -28 l6.4 0 l0 28 l-6.4 0 z M35.28 24.72 l4 4.88 l0 4.44 l-6 5.96 l-17.64 0 l0 -28 l16.44 0 l5.96 5.96 l0 4.16 z M29.560000000000002 18.4 l-7.52 0 l0 3.88 l7.24 0 l1.56 -1.4 l0 -1.2 z M32.08 32 l0 -1.12 l-1.84 -2.2 l-8.2 0 l0 4.92 l8.44 0 z M49.92 40 l-4.8 -6.12 l0 -15.76 l4.8 -6.12 l14.8 0 l4.8 6.12 l0 15.76 l-4.8 6.12 l-14.8 0 z M53.44 33.6 l7.76 0 l1.92 -2.28 l0 -10.64 l-1.92 -2.28 l-7.76 0 l-1.92 2.28 l0 10.64 z M80.16 40 l-4.8 -6.12 l0 -15.76 l4.8 -6.12 l14.8 0 l4.8 6.12 l0 15.76 l-4.8 6.12 l-14.8 0 z M83.67999999999999 33.6 l7.76 0 l1.92 -2.28 l0 -10.64 l-1.92 -2.28 l-7.76 0 l-1.92 2.28 l0 10.64 z M106 40 l0 -6.4 l15 0 l1.04 -1.32 l0 -1.4 l-16.04 -5.56 l0 -7.2 l4.8 -6.12 l16.24 0 l0 6.4 l-13.16 0 l-0.88 1.12 l0 1.56 l16.04 5.56 l0 7.24 l-4.8 6.12 l-18.24 0 z M156.32 12 l0 5.2 l-8.08 0 l0 22.8 l-6.4 0 l0 -22.8 l-8.16 0 l0 -5.2 l22.64 0 z"></path></g><g id="SvgjsG30906" featureKey="sloganFeature-0" transform="matrix(0.7838338467437903,0,0,0.7838338467437903,97.29454908941726,62.29699841458167)" fill="#ffffff"><path d="M10.72 12.36 l2 2.44 l0 2.22 l-3 2.98 l-8.82 0 l0 -14 l8.22 0 l2.98 2.98 l0 2.08 z M7.86 9.2 l-3.76 0 l0 1.94 l3.62 0 l0.78 -0.7 l0 -0.6 z M9.12 16 l0 -0.56 l-0.92 -1.1 l-4.1 0 l0 2.46 l4.22 0 z M19.330000000000002 20 l-2.4 -3.06 l0 -7.88 l2.4 -3.06 l7.4 0 l2.4 3.06 l0 7.88 l-2.4 3.06 l-7.4 0 z M21.090000000000003 16.8 l3.88 0 l0.96 -1.14 l0 -5.32 l-0.96 -1.14 l-3.88 0 l-0.96 1.14 l0 5.32 z M35.74 20 l-2.4 -3.06 l0 -7.88 l2.4 -3.06 l7.4 0 l2.4 3.06 l0 7.88 l-2.4 3.06 l-7.4 0 z M37.5 16.8 l3.88 0 l0.96 -1.14 l0 -5.32 l-0.96 -1.14 l-3.88 0 l-0.96 1.14 l0 5.32 z M49.95 20 l0 -3.2 l7.5 0 l0.52 -0.66 l0 -0.7 l-8.02 -2.78 l0 -3.6 l2.4 -3.06 l8.12 0 l0 3.2 l-6.58 0 l-0.44 0.56 l0 0.78 l8.02 2.78 l0 3.62 l-2.4 3.06 l-9.12 0 z M76.4 6 l0 2.6 l-4.04 0 l0 11.4 l-3.2 0 l0 -11.4 l-4.08 0 l0 -2.6 l11.32 0 z M101.86000000000001 6 l3.32 0 l-5.02 14 l-6.24 0 l0 -3.2 l4.06 0 l0.86 -2.4 l-4.92 0 l0 -8.4 l3.2 0 l0 5.2 l2.88 0 z M111.19000000000001 20 l-2.4 -3.06 l0 -7.88 l2.4 -3.06 l7.4 0 l2.4 3.06 l0 7.88 l-2.4 3.06 l-7.4 0 z M112.95000000000002 16.8 l3.88 0 l0.96 -1.14 l0 -5.32 l-0.96 -1.14 l-3.88 0 l-0.96 1.14 l0 5.32 z M127.9 20 l-2.4 -3.06 l0 -10.94 l3.2 0 l0 9.06 l1.36 1.74 l2.68 0 l1.36 -1.74 l0 -9.06 l3.2 0 l0 10.94 l-2.4 3.06 l-7 0 z M150.03 20 l-1.74 -4.2 l-2.98 0 l0 4.2 l-3.2 0 l0 -14 l8.22 0 l2.98 2.98 l0 3.84 l-2.04 2.04 l2.14 5.14 l-3.38 0 z M145.31 9.2 l0 3.4 l3.58 0 l1.22 -1.22 l0 -0.96 l-1.22 -1.22 l-3.58 0 z M179.35000000000002 6 l2.98 2.98 l0 4.64 l-2.98 2.98 l-5.02 0 l0 3.4 l-3.2 0 l0 -14 l8.22 0 z M179.13000000000002 12.18 l0 -1.76 l-1.22 -1.22 l-3.58 0 l0 4.2 l3.58 0 z M190.04000000000002 16.8 l7.9 0 l0 3.2 l-11.1 0 l0 -14 l10.88 0 l0 3.2 l-7.68 0 l0 2 l7.26 0 l0 3.2 l-7.26 0 l0 2.4 z M210.57000000000002 20 l-1.74 -4.2 l-2.98 0 l0 4.2 l-3.2 0 l0 -14 l8.22 0 l2.98 2.98 l0 3.84 l-2.04 2.04 l2.14 5.14 l-3.38 0 z M205.85000000000002 9.2 l0 3.4 l3.58 0 l1.22 -1.22 l0 -0.96 l-1.22 -1.22 l-3.58 0 z M229.34000000000003 9.2 l-7.68 0 l0 2.2 l6.26 0 l0 3.2 l-6.26 0 l0 5.4 l-3.2 0 l0 -14 l10.88 0 l0 3.2 z M235.85000000000002 20 l-2.4 -3.06 l0 -7.88 l2.4 -3.06 l7.4 0 l2.4 3.06 l0 7.88 l-2.4 3.06 l-7.4 0 z M237.61 16.8 l3.88 0 l0.96 -1.14 l0 -5.32 l-0.96 -1.14 l-3.88 0 l-0.96 1.14 l0 5.32 z M258.08000000000004 20 l-1.74 -4.2 l-2.98 0 l0 4.2 l-3.2 0 l0 -14 l8.22 0 l2.98 2.98 l0 3.84 l-2.04 2.04 l2.14 5.14 l-3.38 0 z M253.36 9.2 l0 3.4 l3.58 0 l1.22 -1.22 l0 -0.96 l-1.22 -1.22 l-3.58 0 z M265.96999999999997 20 l0 -14 l5.88 0 l1.52 6.2 l0.44 0 l1.68 -6.2 l5.88 0 l0 14 l-3.2 0 l0 -10.8 l-0.32 0 l-1.68 6.2 l-5.16 0 l-1.52 -6.2 l-0.32 0 l0 10.8 l-3.2 0 z M295.08 20 l-0.82 -3.2 l-4.74 0 l-0.84 3.2 l-3.2 0 l3.64 -14 l5.56 0 l3.6 14 l-3.2 0 z M290.35999999999996 13.6 l3.1 0 l-1.28 -5 l-0.52 0 z M310.40999999999997 6 l3.18 0 l-0.02 14 l-3.2 0 l0.02 -5.6 l-4.48 -5.4 l-0.32 0 l0 11 l-3.2 0 l0 -14 l5.08 0 l2.92 3.56 z M321.0799999999999 20 l-2.98 -2.98 l0 -8.04 l2.98 -2.98 l7.22 0 l0 3.2 l-5.78 0 l-1.22 1.22 l0 5.16 l1.22 1.22 l5.78 0 l0 3.2 l-7.22 0 z M336.21 16.8 l7.9 0 l0 3.2 l-11.1 0 l0 -14 l10.88 0 l0 3.2 l-7.68 0 l0 2 l7.26 0 l0 3.2 l-7.26 0 l0 2.4 z"></path></g>
			</g>
		</svg>
	