
        <svg xmlns="http://www.w3.org/2000/svg" xmlns:xlink="http://www.w3.org/1999/xlink" version="1.1" width="3162.0829943043123" 
        height="817.750828843795" viewBox="0 0 3162.0829943043123 817.750828843795">
			
			<g transform="scale(8.104149715215621) translate(10, 10)">
				<defs id="SvgjsDefs14309"><linearGradient id="SvgjsLinearGradient14316"><stop id="SvgjsStop14317" stop-color="#ef4136" offset="0"></stop><stop id="SvgjsStop14318" stop-color="#fbb040" offset="1"></stop></linearGradient></defs><g id="SvgjsG14310" featureKey="monogramFeature-0" transform="matrix(1.2150336648223083,0,0,1.2150336648223083,4.224256603140297,-18.79168282863225)" fill="url(#SvgjsLinearGradient14316)"><path d="M44.707 41.016 l-4.4531 19.102 l-14.678 0 l4.1602 -17.93 l-8.4961 0 l-4.1895 17.93 l-14.766 0 l4.4238 -19.102 l-2.959 0 l5.6543 -24.727 l14.766 0 l-3.3691 14.854 l8.4668 0 l3.4277 -14.854 l14.707 0 l-5.7129 24.727 l3.0176 0 z"></path></g><g id="SvgjsG14311" featureKey="nameFeature-0" transform="matrix(1.9127832353675702,0,0,1.9127832353675702,71.17443444135098,-22.953391527721866)" fill="#ff9300"><path d="M2 40 l0 -28 l6.4 0 l0 28 l-6.4 0 z M35.28 24.72 l4 4.88 l0 4.44 l-6 5.96 l-17.64 0 l0 -28 l16.44 0 l5.96 5.96 l0 4.16 z M29.560000000000002 18.4 l-7.52 0 l0 3.88 l7.24 0 l1.56 -1.4 l0 -1.2 z M32.08 32 l0 -1.12 l-1.84 -2.2 l-8.2 0 l0 4.92 l8.44 0 z M49.92 40 l-4.8 -6.12 l0 -15.76 l4.8 -6.12 l14.8 0 l4.8 6.12 l0 15.76 l-4.8 6.12 l-14.8 0 z M53.44 33.6 l7.76 0 l1.92 -2.28 l0 -10.64 l-1.92 -2.28 l-7.76 0 l-1.92 2.28 l0 10.64 z M80.16 40 l-4.8 -6.12 l0 -15.76 l4.8 -6.12 l14.8 0 l4.8 6.12 l0 15.76 l-4.8 6.12 l-14.8 0 z M83.67999999999999 33.6 l7.76 0 l1.92 -2.28 l0 -10.64 l-1.92 -2.28 l-7.76 0 l-1.92 2.28 l0 10.64 z M106 40 l0 -6.4 l15 0 l1.04 -1.32 l0 -1.4 l-16.04 -5.56 l0 -7.2 l4.8 -6.12 l16.24 0 l0 6.4 l-13.16 0 l-0.88 1.12 l0 1.56 l16.04 5.56 l0 7.24 l-4.8 6.12 l-18.24 0 z M156.32 12 l0 5.2 l-8.08 0 l0 22.8 l-6.4 0 l0 -22.8 l-8.16 0 l0 -5.2 l22.64 0 z"></path></g><g id="SvgjsG14312" featureKey="sloganFeature-0" transform="matrix(0.9217995813670137,0,0,0.9217995813670137,58.26256103818366,62.46920426999109)" fill="#ff9000"><path d="M0.8 20 l0 -3.2 l7.5 0 l0.52 -0.66 l0 -0.7 l-8.02 -2.78 l0 -3.6 l2.4 -3.06 l8.12 0 l0 3.2 l-6.58 0 l-0.44 0.56 l0 0.78 l8.02 2.78 l0 3.62 l-2.4 3.06 l-9.12 0 z M28.519999999999996 6 l2.98 2.98 l0 4.64 l-2.98 2.98 l-5.02 0 l0 3.4 l-3.2 0 l0 -14 l8.22 0 z M28.299999999999997 12.18 l0 -1.76 l-1.22 -1.22 l-3.58 0 l0 4.2 l3.58 0 z M41.980000000000004 20 l-2.4 -3.06 l0 -7.88 l2.4 -3.06 l7.4 0 l2.4 3.06 l0 7.88 l-2.4 3.06 l-7.4 0 z M43.74 16.8 l3.88 0 l0.96 -1.14 l0 -5.32 l-0.96 -1.14 l-3.88 0 l-0.96 1.14 l0 5.32 z M68.08000000000001 20 l-1.74 -4.2 l-2.98 0 l0 4.2 l-3.2 0 l0 -14 l8.22 0 l2.98 2.98 l0 3.84 l-2.04 2.04 l2.14 5.14 l-3.38 0 z M63.36000000000001 9.2 l0 3.4 l3.58 0 l1.22 -1.22 l0 -0.96 l-1.22 -1.22 l-3.58 0 z M90.66 6 l0 2.6 l-4.04 0 l0 11.4 l-3.2 0 l0 -11.4 l-4.08 0 l0 -2.6 l11.32 0 z M98.74 20 l0 -3.2 l7.5 0 l0.52 -0.66 l0 -0.7 l-8.02 -2.78 l0 -3.6 l2.4 -3.06 l8.12 0 l0 3.2 l-6.58 0 l-0.44 0.56 l0 0.78 l8.02 2.78 l0 3.62 l-2.4 3.06 l-9.12 0 z M143.34 6 l3.18 0 l-0.02 14 l-3.2 0 l0.02 -5.6 l-4.48 -5.4 l-0.32 0 l0 11 l-3.2 0 l0 -14 l5.08 0 l2.92 3.56 z M157.60000000000002 20 l-2.4 -3.06 l0 -10.94 l3.2 0 l0 9.06 l1.36 1.74 l2.68 0 l1.36 -1.74 l0 -9.06 l3.2 0 l0 10.94 l-2.4 3.06 l-7 0 z M186.5 6 l0 2.6 l-4.04 0 l0 11.4 l-3.2 0 l0 -11.4 l-4.08 0 l0 -2.6 l11.32 0 z M202.6 20 l-1.74 -4.2 l-2.98 0 l0 4.2 l-3.2 0 l0 -14 l8.22 0 l2.98 2.98 l0 3.84 l-2.04 2.04 l2.14 5.14 l-3.38 0 z M197.88 9.2 l0 3.4 l3.58 0 l1.22 -1.22 l0 -0.96 l-1.22 -1.22 l-3.58 0 z M214.46 20 l0 -14 l3.2 0 l0 14 l-3.2 0 z M237.26000000000002 6 l0 2.6 l-4.04 0 l0 11.4 l-3.2 0 l0 -11.4 l-4.08 0 l0 -2.6 l11.32 0 z M245.54000000000002 20 l0 -14 l3.2 0 l0 14 l-3.2 0 z M259.62 20 l-2.4 -3.06 l0 -7.88 l2.4 -3.06 l7.4 0 l2.4 3.06 l0 7.88 l-2.4 3.06 l-7.4 0 z M261.38 16.8 l3.88 0 l0.96 -1.14 l0 -5.32 l-0.96 -1.14 l-3.88 0 l-0.96 1.14 l0 5.32 z M285.82 6 l3.18 0 l-0.02 14 l-3.2 0 l0.02 -5.6 l-4.48 -5.4 l-0.32 0 l0 11 l-3.2 0 l0 -14 l5.08 0 l2.92 3.56 z"></path></g>
			</g>
		</svg>
	